<svg xmlns="http://www.w3.org/2000/svg" viewBox="0 0 24 24" width="24" height="24" shape-rendering="crispEdges">
  <!-- Top Sensor -->
  <rect x="11" y="1" width="2" height="2" fill="#F5BC4C"/>
  <!-- Thruster Wings -->
  <rect x="1" y="9" width="2" height="6" fill="#8C530D"/>
  <rect x="1" y="10" width="1" height="4" fill="#F5BC4C"/>
  <rect x="1" y="15" width="2" height="1" fill="#5FD38A"/>
  <rect x="21" y="9" width="2" height="6" fill="#8C530D"/>
  <rect x="22" y="10" width="1" height="4" fill="#8C530D"/>
  <rect x="21" y="15" width="2" height="1" fill="#5FD38A"/>
  <!-- Orb Body -->
  <rect x="7" y="3" width="10" height="1" fill="#F5BC4C"/>
  <rect x="5" y="4" width="2" height="1" fill="#F5BC4C"/>
  <rect x="17" y="4" width="2" height="1" fill="#8C530D"/>
  <rect x="4" y="5" width="1" height="2" fill="#F5BC4C"/>
  <rect x="19" y="5" width="1" height="2" fill="#8C530D"/>
  <rect x="3" y="7" width="18" height="10" fill="#E8A33D"/>
  <rect x="3" y="7" width="1" height="10" fill="#F5BC4C"/>
  <rect x="20" y="7" width="1" height="10" fill="#8C530D"/>
  <rect x="4" y="17" width="1" height="2" fill="#8C530D"/>
  <rect x="19" y="17" width="1" height="2" fill="#8C530D"/>
  <rect x="5" y="19" width="2" height="1" fill="#8C530D"/>
  <rect x="17" y="19" width="2" height="1" fill="#8C530D"/>
  <rect x="7" y="20" width="10" height="1" fill="#8C530D"/>
  <!-- Visor Screen -->
  <rect x="6" y="7" width="12" height="8" fill="#070A10"/>
  <rect x="5" y="8" width="1" height="6" fill="#070A10"/>
  <rect x="18" y="8" width="1" height="6" fill="#070A10"/>
  <!-- Glowing Eyes -->
  <rect x="8" y="9" width="2" height="3" fill="#5FD38A"/>
  <rect x="8" y="9" width="1" height="1" fill="#E6EDF3"/>
  <rect x="14" y="9" width="2" height="3" fill="#5FD38A"/>
  <rect x="14" y="9" width="1" height="1" fill="#E6EDF3"/>
  <!-- Cheek Energy Blinks -->
  <rect x="6" y="13" width="2" height="1" fill="#F5BC4C"/>
  <rect x="16" y="13" width="2" height="1" fill="#F5BC4C"/>
  <!-- Bottom Hover Jet -->
  <rect x="10" y="21" width="4" height="1" fill="#1E2A3A"/>
  <rect x="11" y="22" width="2" height="2" fill="#5FD38A"/>
</svg>
